# xmcd CD database file
#
# Track frame offsets:
#	150
#	4949
#	12507
#	41368
#	59616
#	77060
#	103924
#	120877
#	146258
#	172074
#
# Disc length: 2402 seconds
#
# Revision: 0
# Processed by: cddbd v1.5.1PL2 Copyright (c) Steve Scherf et al.
# Submitted via: CDex 1.51
#
DISCID=7d09600a
DTITLE=ALTZ - LaLaLa
DYEAR=2005
DGENRE=Techno
TTITLE0=avico
TTITLE1=lakeside cafe
TTITLE2=yello
TTITLE3=lalala
TTITLE4=abby
TTITLE5=dododo
TTITLE6=sun&newer
TTITLE7=humming
TTITLE8=boogie altz
TTITLE9=flying jinc
EXTD=YEAR: 2005
EXTT0=
EXTT1=
EXTT2=
EXTT3=
EXTT4=
EXTT5=
EXTT6=
EXTT7=
EXTT8=
EXTT9=
PLAYORDER=
